<?xml version="1.0" encoding="UTF-8"?><svg id="a" xmlns="http://www.w3.org/2000/svg" viewBox="0 0 158.805 68"><path d="m72.2872,14.2976h-.5495c-2.0587,0-3.7151.4448-4.9708,1.3343-1.2558.8896-2.2329,1.9803-2.9303,3.2705,0-.6974-.0179-1.4733-.0523-2.3285-.0351-.8543-.0874-1.596-.1569-2.2239-.2797-.0342-.5413-.0603-.7849-.0785-.2445-.0172-.5061-.0262-.7848-.0262-.2445,0-.4971.009-.7588.0262-.2616.0181-.5323.0443-.811.0785v26.6861c.2092.0344.5053.0605.8895.0785.3835.0172.6623.0262.8373.0262.2093,0,.4971-.009.8634-.0262.3663-.0179.6541-.0441.8634-.0785v-13.7093c0-3.4878.7145-5.9822,2.1453-7.4826,1.43-1.4994,3.3309-2.2499,5.7035-2.2499h.4971c.157,0,.3745.0179.6541.0523.1046-.5233.157-1.0638.157-1.6222,0-.5233-.0524-1.0808-.157-1.6745-.2445-.0342-.4628-.0523-.6541-.0523Zm50.7811-10.1892v10.5556c-.6984-.2436-1.614-.462-2.7472-.6541-1.1338-.1913-2.276-.2879-3.4272-.2879-1.954,0-3.7413.332-5.3635.9943-1.622.663-3.0086,1.614-4.1598,2.8518-1.1512,1.2386-2.0406,2.756-2.6685,4.5523-.6279,1.797-.942,3.8459-.942,6.1483,0,2.5116.3574,4.6225,1.0727,6.3314.7146,1.7096,1.6825,3.0872,2.9039,4.1336,1.2207,1.0466,2.6687,1.797,4.343,2.2501,1.6745.4528,3.4708.6802,5.3896.6802,1.744,0,3.4183-.1226,5.0233-.3664,1.604-.2444,2.9473-.5403,4.029-.8895V4.1083h-3.4534Zm0,33.8404c-.5936.1751-1.4128.323-2.4593.4448-1.0466.1226-2.1455.1831-3.2964.1831-3.1747,0-5.625-.8282-7.3518-2.4855-1.7268-1.6563-2.5901-4.2987-2.5901-7.9274,0-1.6743.2003-3.209.6018-4.6046.4005-1.3948,1.0023-2.5901,1.8052-3.5844.802-.9941,1.8053-1.7699,3.0086-2.3284,1.2035-.5576,2.6245-.8373,4.2646-.8373,1.1512,0,2.2673.1138,3.349.3402,1.0807.2272,1.9702.4799,2.6686.7587v20.0407Zm-29.0924-22.0029c-1.6399-1.4822-4.1516-2.2239-7.5349-2.2239-1.3956,0-2.756.0966-4.0813.2879-1.3262.1921-2.4421.4276-3.3489.7064,0,.5233.0605,1.0817.1832,1.6745.1218.5935.2698,1.0464.4447,1.3604.9067-.2789,1.936-.5143,3.0873-.7064,1.151-.1913,2.424-.2879,3.8197-.2879,2.1273,0,3.7321.5323,4.8138,1.596,1.0809,1.0645,1.6224,2.747,1.6224,5.0494v1.622c-.5937-.0695-1.3434-.148-2.2503-.2354-.9074-.0867-1.9883-.1308-3.2441-.1308-1.6048,0-3.079.1921-4.4215.5756-1.3433.3841-2.4944.9507-3.4535,1.7004-.9599.7507-1.7096,1.6745-2.25,2.7734-.5412,1.0989-.8111,2.3465-.8111,3.7413,0,2.8959.9329,4.9889,2.7994,6.2791,1.8658,1.2909,4.4215,1.936,7.6657,1.936,1.5699,0,3.2262-.1226,4.9709-.3664,1.744-.2444,3.2262-.488,4.4477-.7325v-17.6337c0-3.1739-.8198-5.5022-2.4593-6.9854Zm-.9939,22.1075c-.9078.1751-1.8316.3141-2.7736.4187-.9418.1046-1.954.1569-3.0347.1569-.8373,0-1.6745-.0605-2.5116-.1831-.8373-.1218-1.605-.3664-2.3024-.7325-.6983-.3664-1.2649-.8979-1.7007-1.596-.4366-.6974-.6541-1.622-.6541-2.7732,0-1.8135.7146-3.209,2.1455-4.1861,1.4299-.9761,3.4534-1.465,6.0696-1.465.802,0,1.6483.0441,2.5378.1308.8896.0874,1.6304.1659,2.2241.2354v9.9942Z" fill="#fce519"/><path d="m50.44,52.0297v-1.0327h-3.9059v5.9297h3.9059v-1.0327h-2.7483v-1.4407h2.3402v-1.0327h-2.3402v-1.3909h2.7483Zm-25.1444,9.2496h1.1077v-.8828h-1.1077v.8828Zm17.5755,5.0801h1.0827v-4.214h-1.0827v4.214Zm-1.5618-5.4966h-1.0827v1.2826h-.458v.8244h.458v2.1487c0,.6163.3748,1.2409,1.2576,1.2409h.5913v-.9161h-.3914c-.2582,0-.3748-.1416-.3748-.3915v-2.082h.7662v-.8244h-.7662v-1.2826Zm-7.6383-21.4751c1.0637.8896,2.3195,1.4914,3.7674,1.8053,1.4471.314,2.9907.471,4.6308.471,1.6744,0,3.3047-.1308,4.8924-.3925,1.587-.2615,3.0259-.5664,4.3169-.9156V14.3499c-.2093-.0342-.4971-.0603-.8634-.0785-.3663-.0172-.6541-.0262-.8634-.0262-.175,0-.4537.009-.8371.0262-.3843.0181-.6802.0443-.8895.0785v23.5989c-.6983.2092-1.5003.3753-2.407.4971-.9075.1226-1.936.1831-3.0872.1831-1.3604,0-2.5819-.1308-3.6627-.3923-1.0817-.2617-1.9974-.7327-2.7471-1.4129-.7506-.6802-1.3171-1.622-1.7005-2.8255-.3843-1.2035-.5756-2.7472-.5756-4.6309v-15.0175c-.2093-.0342-.4971-.0603-.8634-.0785-.3663-.0172-.6541-.0262-.8634-.0262-.175,0-.4537.009-.8371.0262-.3843.0181-.6802.0443-.8895.0785v15.2269c0,2.5116.314,4.5523.9419,6.1221.6279,1.5697,1.4733,2.7993,2.5378,3.6888Zm-.4174,22.5827c-.7245,0-1.1326.1499-1.5574.6163l.6829.6746c.2332-.2665.4414-.3747.8328-.3747.5746,0,.8078.2081.8078.6828v.2166h-1.0077c-1.0244,0-1.499.5663-1.499,1.2575,0,.3832.1249.7329.3581.9745.2498.2498.6162.3831,1.1076.3831.4997,0,.7745-.1249,1.066-.4164v.3747h1.0577v-2.8566c0-1.016-.6246-1.5324-1.8488-1.5324Zm.7662,2.79c0,.2748-.0416.4414-.1665.5497-.1832.1749-.3747.2082-.6413.2082-.4497,0-.6579-.1916-.6579-.4914,0-.3249.2082-.4998.6413-.4998h.8244v.2332Zm3.7988-1.8156c.2832,0,.4747.1.6996.3415l.7329-.7329c-.3831-.3997-.8328-.583-1.4325-.583-.8661,0-1.9404.458-1.9404,2.2153s1.0743,2.2236,1.9404,2.2236c.5996,0,1.0493-.1916,1.4325-.5913l-.7329-.7246c-.2249.2416-.4164.3415-.6996.3415-.2582,0-.458-.0916-.6162-.2832-.1666-.2081-.2416-.508-.2416-.966s.075-.7496.2416-.9577c.1582-.1916.3581-.2832.6162-.2832Zm-8.7594-.9744c-.6413,0-1.066.2499-1.3408.533-.3914.4164-.4914.8995-.4914,1.6823s.1,1.2742.4914,1.6906c.2748.2831.6995.533,1.3408.533s1.0743-.2499,1.3491-.533c.3998-.4081.4914-.9077.4914-1.6906s-.1-1.2659-.4914-1.6823c-.2748-.2914-.7079-.533-1.3491-.533Zm.508,3.273c-.1249.1249-.2915.1916-.508.1916-.2082,0-.3748-.0666-.4997-.1916-.2249-.2165-.2498-.608-.2498-1.0577,0-.4414.025-.8328.2498-1.0493.1249-.1249.2915-.1916.4997-.1916.2165,0,.3831.0666.508.1916.2249.2166.2498.608.2498,1.0493,0,.4497-.025.8412-.2498,1.0577Zm-6.3524-2.8399c-.2832-.3164-.6163-.433-1.0577-.433-.4331,0-.8078.1416-1.0493.3914-.4164.4248-.4498,1.0993-.4498,1.8239,0,.7329.0333,1.4074.4498,1.8322.2415.2498.6246.3914,1.0577.3914.458,0,.7745-.1249,1.0743-.458v.4081h1.0577v-5.9297h-1.0827v1.9737Zm-.7412,3.0315c-.6496,0-.7329-.5497-.7329-1.2493s.0833-1.2409.7329-1.2409.7412.5413.7412,1.2409-.0916,1.2493-.7412,1.2493Zm51.4578-11.0817c-1.0244,0-1.499.5663-1.499,1.2575,0,.3832.1249.7329.3581.9745.2498.2498.6162.3831,1.1076.3831.4997,0,.7745-.1249,1.066-.4164v.3747h1.0577v-2.8566c0-1.016-.6246-1.5324-1.8488-1.5324-.7245,0-1.1326.1499-1.5574.6163l.6829.6746c.2332-.2665.4414-.3747.8328-.3747.5746,0,.8078.2081.8078.6828v.2166h-1.0077Zm1.0077.9744c0,.2748-.0416.4414-.1665.5497-.1832.1749-.3747.2082-.6413.2082-.4497,0-.6579-.1916-.6579-.4914,0-.3249.2082-.4998.6413-.4998h.8244v.2332Zm-4.8556,1.649c.7828,0,1.2076-.2332,1.649-.6829l-.6579-.6413c-.2748.2665-.508.4082-.9827.4082-.6163,0-.9494-.3998-.9494-.9661h2.7149v-.458c0-1.2325-.6829-2.0987-1.8905-2.0987-1.1243,0-1.8904.7996-1.8904,2.2153,0,1.7573.9827,2.2236,2.0071,2.2236Zm-.8412-3.0897c.1166-.2582.3581-.4497.7245-.4497s.608.1915.7246.4497c.0749.1582.0916.2748.0999.4664h-1.6489c.0083-.1916.0249-.3082.0999-.4664Zm40.6376.4247c0-.5497.3664-.7996.6996-.7996.2665,0,.4081.0916.5746.2582l.8162-.8245c-.2999-.2998-.5996-.4081-1.0244-.4081-.4664,0-.8828.2166-1.091.4664v-.4164h-1.0577v4.339h1.0827v-2.615Zm-50.6447.4414c0,.7829.1,1.2742.4914,1.6906.2748.2831.6995.533,1.3408.533s1.0743-.2499,1.3491-.533c.3998-.4081.4914-.9077.4914-1.6906s-.1-1.2659-.4914-1.6823c-.2748-.2914-.7079-.533-1.3491-.533s-1.066.2499-1.3408.533c-.3914.4164-.4914.8995-.4914,1.6823Zm1.3325-1.0493c.1249-.1249.2915-.1916.4997-.1916.2165,0,.3831.0666.508.1916.2249.2166.2498.608.2498,1.0493,0,.4497-.025.8412-.2498,1.0577-.1249.1249-.2915.1916-.508.1916-.2082,0-.3748-.0666-.4997-.1916-.2249-.2165-.2498-.608-.2498-1.0577,0-.4414.025-.8328.2498-1.0493ZM130.9571,5.6478h.782V0h-5.645v.782h4.863v4.8658Zm-8.7813,51.2788v-4.214h-1.0827v4.214h1.0827Zm-96.8636,9.4327h1.0827v-4.214h-1.0827v4.214Zm96.8719-15.3957h-1.1077v.8828h1.1077v-.8828Zm-104.2163,11.0067c-.7245,0-1.1326.1499-1.5574.6163l.6829.6746c.2332-.2665.4414-.3747.8328-.3747.5746,0,.8078.2081.8078.6828v.2166h-1.0077c-1.0244,0-1.499.5663-1.499,1.2575,0,.3832.1249.7329.3581.9745.2498.2498.6162.3831,1.1076.3831.4997,0,.7745-.1249,1.066-.4164v.3747h1.0577v-2.8566c0-1.016-.6246-1.5324-1.8488-1.5324Zm.7662,2.79c0,.2748-.0416.4414-.1665.5497-.1832.1749-.3747.2082-.6413.2082-.4497,0-.6579-.1916-.6579-.4914,0-.3249.2082-.4998.6413-.4998h.8244v.2332Zm-3.1168-2.5151c0-.991-.7162-1.8156-1.9238-1.8156h-2.3236v5.9297h1.1576v-2.3652h.8328l1.1576,2.3652h1.3408l-1.3242-2.5567c.5746-.2082,1.0826-.7246,1.0826-1.5574Zm-1.9987.7828h-1.091v-1.5657h1.091c.508,0,.8412.3249.8412.7829s-.3331.7828-.8412.7828ZM3.1134,37.7918c1.0637,1.2214,2.4241,2.1714,4.0814,2.8516,1.6564.6802,3.6366,1.0204,5.939,1.0204,1.604,0,3.0871-.1226,4.4477-.3664,1.3604-.2444,2.5459-.5926,3.5581-1.0464-.0351-.453-.1046-.9591-.2093-1.5176-.1046-.5575-.2445-1.0284-.4186-1.4127-1.0817.3843-2.1895.6892-3.3227.9158-1.1339.2272-2.3636.34-3.6889.34-3.2794,0-5.7387-.8371-7.378-2.5116-1.64-1.6745-2.4592-4.2907-2.4592-7.8489h19.0464c.0344-.3482.0605-.7669.0785-1.2558.0172-.488.0262-.8895.0262-1.2033,0-1.744-.2354-3.3572-.7064-4.8402-.4709-1.4822-1.1691-2.7552-2.0931-3.8198-.9247-1.0638-2.0668-1.8919-3.4272-2.4855-1.3605-.5928-2.9131-.8896-4.657-.8896-2.0931,0-3.8901.3664-5.3895,1.0989-1.5003.7325-2.7299,1.7447-3.689,3.0349-.9598,1.2909-1.6744,2.7913-2.1454,4.5-.4709,1.7096-.7064,3.541-.7064,5.4942,0,2.0235.2527,3.881.7587,5.5727.5053,1.6924,1.2902,3.1485,2.3547,4.3692Zm3.1505-18.7512c1.3448-1.4821,3.2512-2.2336,5.6663-2.2336,1.3105,0,2.447.2446,3.378.7268.9305.483,1.6994,1.1208,2.2854,1.8956.5857.7757,1.023,1.6943,1.2997,2.7299.2722,1.0219.4124,2.0743.4167,3.1287H3.8231c.2819-2.6706,1.1029-4.7723,2.4408-6.2475Zm36.5906,42.2386h1.1077v-.8828h-1.1077v.8828Zm-36.1322.6912c-.3998,0-.7995.1499-1.0827.4497v-.3997h-1.0577v4.339h1.0827v-2.6234c0-.5913.3831-.7912.7245-.7912s.7162.1999.7162.7912v2.6234h1.0827v-2.7733c0-.4747-.0916-.8827-.4414-1.2325-.2415-.2416-.5913-.3832-1.0244-.3832Zm-4.834,0c-.6413,0-1.066.2499-1.3408.533-.3914.4164-.4914.8995-.4914,1.6823s.1,1.2742.4914,1.6906c.2748.2831.6995.533,1.3408.533s1.0743-.2499,1.3491-.533c.3998-.4081.4914-.9077.4914-1.6906s-.1-1.2659-.4914-1.6823c-.2748-.2914-.7079-.533-1.3491-.533Zm.508,3.273c-.1249.1249-.2915.1916-.508.1916-.2082,0-.3748-.0666-.4997-.1916-.2249-.2165-.2498-.608-.2498-1.0577,0-.4414.025-.8328.2498-1.0493.1249-.1249.2915-.1916.4997-.1916.2165,0,.3831.0666.508.1916.2249.2166.2498.608.2498,1.0493,0,.4497-.025.8412-.2498,1.0577Zm123.9613-8.6582c.4164-.4248.4497-1.1077.4497-1.8322s-.0333-1.3991-.4497-1.8239c-.2416-.2498-.6246-.3914-1.0493-.3914-.4664,0-.7829.1249-1.0827.458v-.4081h-1.0493v5.9297h1.0827v-1.9737c.2748.3164.608.433,1.0493.433.4247,0,.8078-.1416,1.0493-.3914Zm-2.0987-1.8322c0-.6996.0833-1.2409.7328-1.2409s.7329.5413.7329,1.2409-.0833,1.2493-.7329,1.2493-.7328-.5497-.7328-1.2493Zm-18.1708,7.2174c-1.1243,0-1.8905.7996-1.8905,2.2153,0,1.7573.9827,2.2236,2.0072,2.2236.7828,0,1.2075-.2332,1.6489-.6829l-.6578-.6413c-.2749.2665-.508.4082-.9828.4082-.6162,0-.9494-.3998-.9494-.9661h2.715v-.458c0-1.2325-.6829-2.0987-1.8904-2.0987Zm-.8245,1.8156c.0083-.1916.025-.3082.1-.4664.1166-.2582.3581-.4497.7246-.4497s.608.1915.7245.4497c.075.1582.0916.2748.1.4664h-1.649Zm-3.3008-11.2483c-.3997,0-.7996.1499-1.0827.4497v-.3997h-1.0577v4.339h1.0827v-2.6234c0-.5913.3831-.7912.7245-.7912s.7163.1999.7163.7912v2.6234h1.0827v-2.7733c0-.4747-.0916-.8827-.4414-1.2325-.2416-.2416-.5913-.3832-1.0244-.3832Zm-8.7393,9.4327c-.3997,0-.7996.1499-1.0827.4497v-.3997h-1.0577v4.339h1.0827v-2.6234c0-.5913.3831-.7912.7245-.7912s.7163.1999.7163.7912v2.6234h1.0827v-2.7733c0-.4747-.0916-.8827-.4414-1.2325-.2416-.2416-.5913-.3832-1.0244-.3832Zm12.8713-9.4327c-1.1243,0-1.8905.7996-1.8905,2.2153,0,1.7573.9827,2.2236,2.0072,2.2236.7828,0,1.2075-.2332,1.6489-.6829l-.6578-.6413c-.2749.2665-.508.4082-.9828.4082-.6162,0-.9494-.3998-.9494-.9661h2.715v-.458c0-1.2325-.6829-2.0987-1.8904-2.0987Zm-.8245,1.8156c.0083-.1916.025-.3082.1-.4664.1166-.2582.3581-.4497.7246-.4497s.608.1915.7245.4497c.075.1582.0916.2748.1.4664h-1.649Zm-8.1539,7.6171c-.7245,0-1.1326.1499-1.5574.6163l.6829.6746c.2331-.2665.4414-.3747.8328-.3747.5746,0,.8079.2081.8079.6828v.2166h-1.0077c-1.0244,0-1.4991.5663-1.4991,1.2575,0,.3832.1249.7329.3582.9745.2498.2498.6163.3831,1.1077.3831.4997,0,.7745-.1249,1.066-.4164v.3747h1.0577v-2.8566c0-1.016-.6246-1.5324-1.8489-1.5324Zm.7662,2.79c0,.2748-.0416.4414-.1666.5497-.1833.1749-.3747.2082-.6413.2082-.4497,0-.6579-.1916-.6579-.4914,0-.3249.2082-.4998.6413-.4998h.8245v.2332Zm-1.5975-11.8146c-.2999-.2998-.5996-.4081-1.0244-.4081-.4664,0-.8828.2166-1.091.4664v-.4164h-1.0577v4.339h1.0827v-2.615c0-.5497.3664-.7996.6996-.7996.2665,0,.4081.0916.5746.2582l.8162-.8245Zm1.9574-1.5157h-1.0827v1.2826h-.458v.8244h.458v2.1487c0,.6163.3747,1.2409,1.2575,1.2409h.5913v-.9161h-.3914c-.2582,0-.3747-.1416-.3747-.3915v-2.082h.7661v-.8244h-.7661v-1.2826Zm15.1373,10.5404c-.5413,0-.9327.1666-1.2991.5497-.2749-.3747-.6663-.5497-1.1493-.5497-.3997,0-.7996.1583-1.0827.4497v-.3997h-1.0577v4.339h1.0827v-2.6234c0-.5913.3831-.7912.7245-.7912s.7163.1999.7163.7912v2.6234h1.0827v-2.6483c0-.5663.3914-.7662.7246-.7662.3414,0,.7162.1999.7162.7912v2.6234h1.0827v-2.7733c0-.4747-.1248-.8827-.4747-1.2325-.2415-.2416-.633-.3832-1.066-.3832Zm-11.0439.458c-.2998-.3331-.5995-.458-1.0577-.458-.4247,0-.7995.1416-1.041.3832-.4081.4081-.4414.9577-.4414,1.7155s.0333,1.3159.4414,1.7239c.2416.2416.608.3831,1.0327.3831s.7496-.1165,1.0327-.433v.4414c0,.4414-.2248.8995-.8744.8995-.3664,0-.608-.1-.8494-.3332l-.6746.6829c.4497.433.9077.5663,1.574.5663,1.166,0,1.9071-.7579,1.9071-1.7989v-4.1807h-1.0493v.4081Zm-.7495,2.7733c-.6413,0-.7079-.558-.7079-1.1326s.0666-1.1243.7079-1.1243.7162.5497.7162,1.1243-.0749,1.1326-.7162,1.1326Zm29.3723-20.4021h-4.8659v.782h5.6479v-5.645h-.782v4.863Zm-4.8672,16.0631h-1.0827v1.2826h-.458v.8244h.458v2.1487c0,.6163.3747,1.2409,1.2575,1.2409h.5913v-.9161h-.3914c-.2582,0-.3747-.1416-.3747-.3915v-2.082h.7661v-.8244h-.7661v-1.2826Zm-11.6147-6.5761l-.6829-.0666c-.3248-.0333-.4497-.1583-.4497-.3747s.1833-.4164.6163-.4164c.3831,0,.7579.0665,1.0077.2914l.6663-.6746c-.4164-.3831-.9744-.508-1.6573-.508-.8827,0-1.674.4747-1.674,1.3825,0,.7995.483,1.1409,1.2493,1.2158l.6996.0666c.3497.0333.458.1833.458.3997,0,.3249-.3915.4498-.7662.4498-.3331,0-.8078-.05-1.1576-.4082l-.7078.7079c.558.5497,1.1659.6246,1.8488.6246,1.0244,0,1.8406-.458,1.8406-1.4158,0-.7412-.433-1.1909-1.2909-1.2742Zm44.3178-16.1653c-.2803-.5206-4.3243-.1601-4.9649-.1201-1.7217.0401-3.4434-.04-5.165-.2002-2.4824-.2402.4805-3.123,1.1611-4.2441,1.0811-1.6816,2.4425-3.2432,3.4434-4.9649,2.5625-4.4042,5.125-9.4492,4.7647-14.6943-.2002-2.6826-2.4024-4.4042-4.3243-5.9257-2.8027-2.1622-6.3261-1.001-8.9287.9609-2.0019,1.4815-4.7246,5.6856-4.204,8.3282.2803,1.4814,1.8417.6005,2.2422-.2002.5206-1.001.6807-2.2423,1.1211-3.2833.7607-1.7617,5.2451-4.7246,6.8868-2.4424,2.2022,3.0831-1.2813,6.3662-1.8818,9.2891,0-.12,0-.04-.0401.0801l.0401-.04c.3203.1601.0801.3603-.1201.6006-.0801.12,0-.3203.0801-.5606-.8008.6006-1.3614,2.4824-1.9619,3.3633-1.001,1.4013-1.8418,2.9629-2.8829,4.3643-1.9219,2.7226-3.043,5.7256-4.6045,8.5684-1.6017,2.8428-1.7217,6.4463,2.4023,6.2862,3.2432-.1602,6.4463-1.2813,9.6495-1.8819,1.4814-.2803,4.204-.1601,5.4853-.8808.5605-.3604,1.3613-.0802,1.4414-.961.04-.2403.4404-1.2412.3603-1.4414Zm-9.1289-18.5781c.0401.0801-.1601.12,0,0h0Zm-32.0695,42.4272c-1.1243,0-1.8905.7996-1.8905,2.2153,0,1.7573.9827,2.2236,2.0072,2.2236.7828,0,1.2075-.2332,1.6489-.6829l-.6578-.6413c-.2749.2665-.508.4082-.9828.4082-.6162,0-.9494-.3998-.9494-.9661h2.715v-.458c0-1.2325-.6829-2.0987-1.8904-2.0987Zm-.8245,1.8156c.0083-.1916.025-.3082.1-.4664.1166-.2582.3581-.4497.7246-.4497s.608.1915.7245.4497c.075.1582.0916.2748.1.4664h-1.649Zm5.6677-1.8156c-.3997,0-.7996.1499-1.0827.4497v-.3997h-1.0577v4.339h1.0827v-2.6234c0-.5913.3831-.7912.7245-.7912s.7163.1999.7163.7912v2.6234h1.0827v-2.7733c0-.4747-.0916-.8827-.4414-1.2325-.2416-.2416-.5913-.3832-1.0244-.3832Zm-3.7889-9.4327c-.4164,0-.7829.1499-1.0577.4497v-1.9904h-1.0827v5.9297h1.0827v-2.6234c0-.5913.3831-.7912.7245-.7912s.7163.1999.7163.7912v2.6234h1.0827v-2.7733c0-.4747-.0916-.8827-.4414-1.2325-.2416-.2416-.5913-.3832-1.0244-.3832Zm-43.218,9.4327c-1.1243,0-1.8904.7996-1.8904,2.2153,0,1.7573.9827,2.2236,2.0071,2.2236.7828,0,1.2076-.2332,1.649-.6829l-.6579-.6413c-.2748.2665-.508.4082-.9827.4082-.6163,0-.9494-.3998-.9494-.9661h2.7149v-.458c0-1.2325-.6829-2.0987-1.8905-2.0987Zm-.8244,1.8156c.0083-.1916.0249-.3082.0999-.4664.1166-.2582.3581-.4497.7245-.4497s.608.1915.7246.4497c.0749.1582.0916.2748.0999.4664h-1.6489Zm-14.5299.3831l-1.0826-3.7393h-.8661l-1.0827,3.7393-.9161-3.7393h-1.2076l1.5823,5.9297h.966l1.091-3.5977,1.091,3.5977h.966l1.5907-5.9297h-1.2076l-.9244,3.7393Zm-4.2538-11.5814v4.339h1.0827v-2.615c0-.5497.3664-.7996.6995-.7996.2665,0,.4081.0916.5746.2582l.8162-.8245c-.2998-.2998-.5996-.4081-1.0244-.4081-.4664,0-.8828.2166-1.091.4664v-.4164h-1.0577Zm8.2194,9.3827c-.7245,0-1.1326.1499-1.5574.6163l.6829.6746c.2332-.2665.4414-.3747.8328-.3747.5746,0,.8078.2081.8078.6828v.2166h-1.0077c-1.0244,0-1.499.5663-1.499,1.2575,0,.3832.1249.7329.3581.9745.2498.2498.6162.3831,1.1076.3831.4997,0,.7745-.1249,1.066-.4164v.3747h1.0577v-2.8566c0-1.016-.6246-1.5324-1.8488-1.5324Zm.7662,2.79c0,.2748-.0416.4414-.1665.5497-.1832.1749-.3748.2082-.6412.2082-.4498,0-.6579-.1916-.6579-.4914,0-.3249.2082-.4998.6413-.4998h.8244v.2332Zm-4.306-19.9592h-4.863v-4.8659h-.782v5.6479h5.645v-.782Zm-6.7755,10.4099c0,.5913-.3831.7912-.7245.7912s-.7162-.1999-.7162-.7912v-2.6234h-1.0827v2.7733c0,.4747.0916.8827.4414,1.2326.2415.2415.5913.3831,1.0244.3831.3998,0,.7995-.1499,1.0827-.4497v.3997h1.0577v-4.339h-1.0827v2.6234Zm-3.0699,6.7594c-1.1243,0-1.8904.7996-1.8904,2.2153,0,1.7573.9827,2.2236,2.0071,2.2236.7828,0,1.2076-.2332,1.649-.6829l-.6579-.6413c-.2748.2665-.508.4082-.9827.4082-.6163,0-.9494-.3998-.9494-.9661h2.7149v-.458c0-1.2325-.6829-2.0987-1.8905-2.0987Zm-.8244,1.8156c.0083-.1916.0249-.3082.0999-.4664.1166-.2582.3581-.4497.7245-.4497s.608.1915.7246.4497c.0749.1582.0916.2748.0999.4664h-1.6489ZM55.6394.7835h4.8659V.0015h-5.6479v5.645h.782V.7835Zm11.7531,53.9695c0-.7246-.0333-1.3991-.4497-1.8239-.2415-.2498-.6246-.3914-1.0493-.3914-.4664,0-.7828.1249-1.0827.458v-.4081h-1.0493v5.9297h1.0827v-1.9737c.2748.3164.6079.433,1.0493.433.4247,0,.8078-.1416,1.0493-.3914.4164-.4248.4497-1.1077.4497-1.8322Zm-1.8155,1.2493c-.6496,0-.7329-.5497-.7329-1.2493s.0832-1.2409.7329-1.2409.7329.5413.7329,1.2409-.0833,1.2493-.7329,1.2493Zm3.3481,7.7171l-.6829-.0666c-.3248-.0333-.4497-.1583-.4497-.3747s.1832-.4164.6162-.4164c.3831,0,.7579.0665,1.0077.2914l.6663-.6746c-.4164-.3831-.9744-.508-1.6573-.508-.8828,0-1.674.4747-1.674,1.3825,0,.7995.4831,1.1409,1.2493,1.2158l.6995.0666c.3498.0333.458.1833.458.3997,0,.3249-.3914.4498-.7662.4498-.3331,0-.8078-.05-1.1576-.4082l-.7079.7079c.558.5497,1.166.6246,1.8488.6246,1.0244,0,1.8405-.458,1.8405-1.4158,0-.7412-.433-1.1909-1.2909-1.2742Zm14.103-.0833l-1.549-3.2063h-1.141v5.9297h1.1576v-3.4562l1.141,2.2486h.7828l1.1326-2.2486v3.4562h1.1576v-5.9297h-1.141l-1.5407,3.2063Zm5.0207-10.7902c0-1.0077-.7246-1.8489-1.9572-1.8489h-2.2985v5.9297h1.1576v-2.232h1.1409c1.2326,0,1.9572-.8411,1.9572-1.8488Zm-2.0154.8078h-1.0827v-1.624h1.0827c.5247,0,.8578.3332.8578.8162s-.3331.8078-.8578.8078Zm2.2178,8.3167c-.7245,0-1.1326.1499-1.5574.6163l.6829.6746c.2331-.2665.4414-.3747.8328-.3747.5746,0,.8079.2081.8079.6828v.2166h-1.0077c-1.0244,0-1.4991.5663-1.4991,1.2575,0,.3832.1249.7329.3582.9745.2498.2498.6163.3831,1.1077.3831.4997,0,.7745-.1249,1.066-.4164v.3747h1.0577v-2.8566c0-1.016-.6246-1.5324-1.8489-1.5324Zm.7662,2.79c0,.2748-.0416.4414-.1666.5497-.1833.1749-.3747.2082-.6413.2082-.4497,0-.6579-.1916-.6579-.4914,0-.3249.2082-.4998.6413-.4998h.8245v.2332Zm3.1117-7.8337v-2.8566c0-1.016-.6246-1.5324-1.8489-1.5324-.7245,0-1.1326.1499-1.5574.6163l.6829.6746c.2331-.2665.4414-.3747.8328-.3747.5746,0,.8079.2081.8079.6828v.2166h-1.0077c-1.0244,0-1.4991.5663-1.4991,1.2575,0,.3832.1249.7329.3582.9745.2498.2498.6163.3831,1.1077.3831.4997,0,.7745-.1249,1.066-.4164v.3747h1.0577Zm-1.0827-1.599c0,.2748-.0416.4414-.1666.5497-.1833.1749-.3747.2082-.6413.2082-.4497,0-.6579-.1916-.6579-.4914,0-.3249.2082-.4998.6413-.4998h.8245v.2332Zm-10.4353,1.599v-2.7733c0-.4747-.0916-.8827-.4414-1.2325-.2415-.2416-.5913-.3832-1.0244-.3832-.3998,0-.7995.1499-1.0827.4497v-.3997h-1.0577v4.339h1.0827v-2.6234c0-.5913.3831-.7912.7245-.7912s.7162.1999.7162.7912v2.6234h1.0827Zm-8.3803,3.9361h-1.0827v1.2826h-.458v.8244h.458v2.1487c0,.6163.3748,1.2409,1.2576,1.2409h.5913v-.9161h-.3914c-.2582,0-.3748-.1416-.3748-.3915v-2.082h.7662v-.8244h-.7662v-1.2826Zm-25.6818,3.8393l-.8827-2.6817h-1.141l1.599,4.339h.8495l1.5907-4.339h-1.141l-.8745,2.6817Z" fill="#315588"/></svg>