<?xml version="1.0" encoding="UTF-8"?>
<svg id="Layer_2" data-name="Layer 2" xmlns="http://www.w3.org/2000/svg" viewBox="0 0 1764.43 776.15">
  <defs>
    <style>
      .cls-1 {
        fill: #fff;
      }

      .cls-2 {
        fill: #17469e;
      }
    </style>
  </defs>
  <g id="Layer_1-2" data-name="Layer 1">
    <rect class="cls-1" width="1764.43" height="776.15"/>
    <g>
      <path class="cls-2" d="m727.78,615.63c-27.71,0-55.5-1.22-83.12.41-20.32,1.2-39.7,9.12-59.58,13.72-19.36,4.47-38.61,9.43-58.01,13.72-5.48,1.21-11.47,1.42-16.91,1.39-17.23-.08-34.09,3.53-51.23,3.79-4.08.06-6.52-1.15-8.65-4.56-19.93-31.8-33.87-65.8-39.9-103.06-2.87-17.71-4.81-35.37-4.84-53.3-.02-13.31,2.74-26.34,3.5-39.57.29-5.14,4.95-5.76,8.84-6.73,19.82-4.95,39.61-9.97,59.48-14.72,20.45-4.9,39.53-13.16,58.96-21.07,24.81-10.1,51.67-13.88,78.44-17.65,21.18-2.98,42.56-5.41,63.59-9.88,10.52-2.24,21.36-3.39,32.11-4.08,18.38-1.2,36.19-5.58,54.21-8.81,32.01-5.74,63.96-11.77,95.95-17.66,18.05-3.32,36.1-6.64,54.16-9.88,6.9-1.24,11.56.45,15.57,7.42,14.32,24.88,25.67,50.68,32.8,78.66,7.93,31.15,8.78,62.66,7.45,94.27-.69,16.29-3.82,32.54-8.61,48.35-1.37,4.5-3.8,6.73-7.94,7.91-46.08,13.14-92.14,26.34-138.26,39.36-3.89,1.1-8.12,1.34-12.19,1.35-25.26.12-50.52.06-75.79.06,0,.18,0,.37,0,.55Zm-113.61-80.86c3.9,1.62,4.62,4.82,6.34,7.13,14.74,19.85,34.33,32.64,58.79,34.97,28.15,2.69,52.96-6.67,72.49-27.72,17.97-19.37,24.09-43.03,20.8-68.46-2.84-22.01-14.1-40.14-31.47-54.59-14.1-11.73-31.38-15.15-48.18-18.81-6.72-1.46-15.38,1.31-22.85,3.14-42.95,10.5-65.59,46.31-66.78,86.63-.52,17.71,5.93,33.69,9.58,50.39,1.22,5.57,1.44,11.3,7.21,15.04,9.54,6.2,18.64,13.06,27.94,19.64,3.83,2.72,7.79,4.52,12.82,3.98,12.26-1.34,24.57-2.31,36.87-3.35,2.01-.17,3-.9,2.78-3-.3-2.93-2.99-2.73-4.38-2.39-7.45,1.82-15.18,1.09-22.58,2.56-10.25,2.03-19.72,2.62-28.28-5.03-4.76-4.26-9.9-8.59-15.66-11.12-9.66-4.25-12.3-12.37-14.38-21.23-.54-2.28-.65-4.67-1.06-7.79Zm201.11-48.53c1.22-11.93-1.37-22.34-3.75-32.97-1.38-6.17-2.8-11.34-7.84-15.22-4.72-3.63-9.21-7.6-14.13-10.93-7.04-4.77-12.62-11.92-21.47-13.78-16.73-3.51-33.5-6.83-50.23-10.37-1.94-.41-4.53-2.95-5.31.11-.8,3.14,2.48,3.08,5.01,3.59,15.49,3.14,30.97,6.34,46.33,10.03,3.77.91,7.86,1.27,11.24,4.15,7.21,6.13,14.89,11.71,22.27,17.66,4.26,3.44,8.29,6.59,9.9,12.75,3.98,15.23,4.41,30.58,4.07,46.1-.05,2.29-.89,4.07-2.14,6.01-10.36,16.1-20.52,32.34-30.84,48.47-1.17,1.82-3.63,3.73-1.16,5.47,2.73,1.92,3.14-1.33,4.23-3.02,5.89-9.11,12.55-17.8,17.71-27.3,7.15-13.16,20.96-23.91,16.09-40.75Zm-234.95,4.94c-.25,6.51-.18,12.98,1.56,19.33.44,1.62.44,3.56,2.78,2.96,2.15-.55.54-2.23.52-3.34-.13-8.4-.03-16.74-1.45-25.17-2.76-16.38,6.27-30.18,11.33-44.83,1.95-5.66,3.96-10.2,10.25-13.3,12.65-6.23,26.01-10.29,39.15-15.04,1.97-.71,3.99-.76,3.19-3.36-1.09-3.53-2.87-.68-4.35-.19-8.09,2.66-16.12,5.53-24.28,7.97-15.3,4.57-27.88,11.75-30.53,29.4-.27,1.8-1.82,3.38-2.16,5.19-1.59,8.43-9.22,15.31-7.41,24.27,1.1,5.44,1.03,10.74,1.4,16.1Zm268.31,45.76c-2.39-.82-4.27.97-5.72,1.94-9.65,6.45-19.24,13.03-28.57,19.93-14.05,10.4-28.17,21.61-44.07,27.98-20.15,8.08-40.69,17.73-63.75,15.24-2.35-.25-7.01-1.52-6.96,1.63.07,3.94,4.69,1.8,7.28,2.07,23.52,2.43,44.49-7.01,64.82-16.19,26.22-11.84,48.46-30.56,71.92-47.04,1.73-1.21,5.65-1.26,5.04-5.57Zm-18.44-28.28c.74-6.62,1.6-13.22,2.2-19.85.97-10.82.58-21.91,2.27-32.46,1.38-8.61.38-15.26-4.16-22.05-2.71-4.06-5.38-8.15-7.89-12.34-1.04-1.75-1.45-4.92-4.19-3-2.49,1.75-.09,3.76,1.13,5.51,7.57,10.86,14.41,22.33,10.99,36.11-2.39,9.64-.35,19.38-2.69,29.03-1.43,5.9-1.29,12.67,2.34,19.03Zm-159.09-120.9c2.88,3.68,6.65,2.92,9.46,2.27,8.01-1.87,16.16-1.68,24.2-1.99,13.85-.54,27.77-3.35,41.62,1.9,5.95,2.26,12.49,4.97,21.35,2.68-10.92-4.57-20.35-8.36-30.62-9.16-19.63-1.52-39.11,2.43-58.73,1.84-2.6-.08-4.65,1.2-7.27,2.47Z"/>
      <path class="cls-2" d="m1544.87,214.33s.73.01.73,0c22.54,2.66,45.1,1.74,67.66.43.49-.03.96-.5,1.44-.77,24.37-.02,48.74-.05,73.11-.07,3.58,1.47,7.26,1.9,11.15,1.88,19.67-.11,39.35-.03,59.02-.01-.02,35.92-.37,71.85.17,107.76.13,8.39-2.44,14.29-8.77,18.9-6.69,4.87-12.35,10.79-17.95,16.77-5.63,6.02-10.42,8.31-19.43,4.08-32.76-15.37-66.16-29.38-99.35-43.82-34.23-14.89-68.55-29.59-102.74-44.56-28.45-12.45-56.77-25.18-85.16-37.76-5.55-2.46-11.22-4.65-16.71-7.22-1.88-.88-4.09-1.88-5.02-.02-.98,1.96,1.21,3.1,3.09,3.9,16.59,7.1,33.27,13.99,49.69,21.46,35.91,16.33,72.59,30.88,108.16,48.01,18.36,8.84,37.53,16.01,56.17,24.3,28.23,12.55,57.05,23.78,84.72,37.55,4.04,2.01,8.99,2.14,12.65,6.35-13.42,11.56-24.01,25.8-36.09,38.69-2.54,2.71-3.37,6.95-5.4,10.24-10.26,16.59-18.38,34.27-25.82,52.2-2.85,6.86-7.24,8.16-13.53,8.14-14-.06-28,.17-42,.19-38.97.03-77.93.01-117.95.01,27.7-45.34,62.28-85.83,97.67-129.36-11.08,0-19.92,0-28.76,0-59.59,0-119.18-.16-178.76.19-7.48.04-8.91-2.08-8.86-9.11.33-42.23.14-84.46.12-126.69,1.68-.14,3.35-.28,5.03-.43,4.63-2.64,9.72-.97,14.57-1.52,2.01,2.81,5.01,1.65,7.56,1.65,50.6.07,101.2.07,151.79.02,2.63,0,5.52.87,7.79-1.38Z"/>
      <path class="cls-2" d="m1210.06,216.01c9.13,5.07,19.54,6.61,29.07,10.9,21.22,9.56,39.89,22.2,56.65,38.38,17.72,17.12,31.73,36.57,41.49,58.99,7.08,16.26,12.31,33.06,14.54,50.95,4.02,32.24.68,63.31-8.85,94.34-3.32,10.81-9.35,13.89-18.58,14.32-14.91.7-28.95,5.57-43.42,8.32-15.75,2.99-31.1,7.6-46.94,10.45-11.05,1.99-22.1,5.4-33.2,8.02-31.61,7.45-63.16,15.15-94.76,22.62-17.24,4.08-34.55,7.85-51.81,11.89-1.34.31-2.41,1.31-3.72-1.21,24.72-21.06,49.76-42.2,74.59-63.59,20.14-17.34,40.13-34.82,61-51.32,12.59-9.96,14.7-24.15,11.08-39.08-4.02-16.56-14.69-26.69-31.66-29.36-23.34-3.68-38.41,4.67-47.79,25.93-.53,1.21-1.28,2.38-1.56,3.65-2.6,12.02-2.58,12.07-14.87,11.75-40.62-1.04-81.21.88-121.81,1.29-10.75.11-13.04-1.53-11.85-12.05,3.01-26.64,8.82-52.51,21.8-76.39,2.26-4.17,5.77-5.28,9.37-6.96,29.29-13.7,58.56-27.41,87.85-41.11,25.82-12.08,51.44-24.64,77.59-35.97,10.47-4.53,20.05-10.82,30.9-14.52,3.7-1.26,7.24-2.41,11.15-2.21.68,1.73,2.33,1.62,3.74,1.96Z"/>
      <path class="cls-2" d="m255.77,216c14.52,5.93,29.58,10.45,43.47,18.01,25.46,13.85,46.14,32.88,63.49,55.89,16.33,21.65,27.01,46,32.39,72.21,4.25,20.67,6.58,41.78,2.46,63.15-3.3,17.11-2.61,17.28-19.55,20.95-55.53,12.04-111.03,24.17-166.61,35.97-17.83,3.79-35.85,6.66-55.48,10.27,18.18-15.42,35.29-29.45,51.81-44.15,10.14-9.02,22.78-15.65,30.4-26.98,13.3-19.78,6.36-51.08-24.04-60.48-24.55-7.59-47.74,7.54-52.53,33.05-.95,5.05-2.48,7.7-8.67,7.75-43.38.3-86.76.97-130.13,1.85-6.9.14-10.09-.79-9.62-8.96,2.37-40.99,15.81-77.67,41.14-110.02,23.72-30.3,53.87-51.59,90.18-64.19,25.26-8.76,51.48-10.21,77.93-9.57,11.12,1.75,22.24,3.5,33.35,5.25Z"/>
      <path class="cls-2" d="m411.35,437.78c4.66-25.03,12.98-48.55,24.25-70.82,17.17-33.94,40.05-63.6,69.11-88.54,18.51-15.88,38.8-28.88,60.35-39.91,18.91-9.68,39.12-16.17,59.81-20.97,4.91-1.14,9.55.64,14.21,2.73,32.82,14.73,65.76,29.16,98.62,43.79,17.57,7.82,35.14,15.66,52.52,23.88,6.46,3.06,13.34,5.04,20.07,4.9,15.61-.33,31.05,1.87,46.61,2.3,10.57.29,21.2,1.25,31.82,1.2,3.85-.02,6.11,2.06,8.22,4.59,6.93,8.31,13.62,16.84,20.71,25.01,4.52,5.21,2.42,7.28-3.16,8.26-18.73,3.29-37.49,6.42-56.2,9.84-35.6,6.51-71.11,13.52-106.78,19.64-20.14,3.46-40.42,6.15-60.73,8.69-41.89,5.25-83.61,11.82-125.07,19.96-19.12,3.75-36.26,12.43-54.13,19.48-30.57,12.07-63.02,17.8-94.76,25.92-1.76.45-3.74.06-5.47.06Z"/>
      <path class="cls-2" d="m392.4,708.75c0,14.54-.21,29.08.1,43.6.13,5.81-1.27,8.37-7.74,8.27-118.6-1.87-237.22-.43-355.83-.73-5.91-.02-7.25-1.87-7.21-7.47.23-37.3.23-74.6,0-111.89-.03-5.37,1.43-6.82,6.85-6.87,47.48-.44,94.96-1.17,142.43-1.9,12.07-.19,24.15-.36,36.19-1.09,21.64-1.3,42.59,3.65,63.73,6.7,19.37,2.79,38.69,6.04,57.92,9.68,16.52,3.13,33.47,4.03,49.55,9.41.51.17,1.06.25,1.59.33,3.97.6,9.71-2,11.55,1.3,2,3.59.82,9.01.84,13.64.06,12.34.02,24.68.02,37.02Z"/>
      <path class="cls-2" d="m282.57,580.52c2.28,3.37,5.57,2.2,8.42,2.2,31.57-.02,63.14,0,94.71-.34,5.38-.06,6.92,1.41,6.83,6.8-.33,18.64-.4,37.29.03,55.92.14,6.21-1.99,7.52-7.51,6.63-15.64-2.52-31.33-4.78-46.98-7.24-18.81-2.96-37.62-5.99-56.41-9.07-14.78-2.42-29.58-4.72-44.27-7.6-4.12-.81-8.1-.91-12.18-.85-57.34.75-114.68,1.48-172.02,2.26-8.77.12-17.54.36-26.31.69-3.7.14-5.04-1.03-5.45-5.06-1.18-11.68,2.08-19.98,12.1-27.62,18.1-13.8,34.6-29.69,51.95-44.49,20.08-17.12,40.39-33.97,60.1-51.52,6.82-6.07,16.81-5.24,25.41-7.18,36.34-8.18,72.97-14.95,109.4-22.75,35.52-7.61,71.08-15.08,106.58-22.79,6.32-1.37,7.61-.48,5.66,5.77-9.31,29.92-22.84,57.3-44.85,80.24-18.82,19.6-40.36,35.07-65.2,46.01Z"/>
      <path class="cls-2" d="m1236.7,582.49c34.03,0,68.06.15,102.09-.13,6.18-.05,8.45,1.19,8.29,7.95-.48,21.1-.34,42.23-.07,63.34.07,5.14-1.66,6.37-6.54,6.59-27.67,1.23-55.28,3.64-82.93,5.31-11.53.7-23.25.14-34.85,2.49-9.8,1.98-19.62-2.36-29.45-3.78-23.65-3.43-46.86-9.25-70.56-12.55-15.07-2.1-29.87-6.09-44.84-8.97-10.9-2.09-21.95-.3-32.94-.57-20.58-.52-41.19-.28-61.78-.05-4.75.05-7.09-.74-6.68-6.19.57-7.53-2.46-14.81-1.18-22.64,1.72-10.49,11.17-13.7,17.32-19.62,12.5-12.02,26.85-22.09,39.62-33.86,8.61-7.94,19.32-9.12,29.53-11.61,52.9-12.85,105.9-25.24,158.89-37.72,30.05-7.07,60.06-14.3,90.24-20.78,7.01-1.5,14.63-.22,23.28-.22-22.29,42.24-54.95,72.33-97.47,93.01Z"/>
      <path class="cls-2" d="m1161.59,759.76c-58.5,0-117.01-.11-175.51.15-7.15.03-9.85-1.24-9.72-9.23.52-32.36.37-64.73.07-97.09-.06-6.19,1.7-7.9,7.87-7.82,26.91.33,53.86-.54,80.74.44,13.05.48,25.99,4.08,38.98,6.29,20.87,3.55,41.63,7.62,62.5,11.21,13.49,2.32,27.01,4.46,40.49,6.83,10.68,1.88,21.54,2.17,31.82.59,11.35-1.75,22.73-1.26,34.02-2.22,14.59-1.24,29.35-2.45,44.13-2.57,7.47-.06,15.14-.86,22.71-1.39,5.65-.4,7.46,1.15,7.38,7.1-.34,26.6-.4,53.21.03,79.81.11,6.75-2.09,8.06-8.33,8.04-59.05-.22-118.11-.13-177.16-.13Z"/>
      <path class="cls-2" d="m1536.15,484.62c29.9,0,59.79,0,89.69,0,18.26,0,18.36.04,12.7,16.79-9.1,26.91-16.26,54.41-20.91,82.34-3.27,19.58-6.87,39.27-7.44,59.3-.17,6.17-1.63,12.29-1.65,18.58-.02,6.21-5.45,3.5-8.06,3.23-19.2-1.94-38.43-3.28-57.73-3.06-33.94.38-67.8-2.62-101.76-1.91-7.19.15-14.5-1.63-21.87-1.49-4.32.08-5.21-2.1-4.21-6.44,9.44-41.19,19.51-82.2,35.85-121.32,5.31-12.72,11.9-24.91,18.01-37.28,2.81-5.68,7.23-7.81,13.88-7.63,17.83.49,35.67.17,53.51.17,0-.43,0-.85,0-1.28Z"/>
      <path class="cls-2" d="m920.48,653.79c-18.69,27.62-41.61,50.65-68.32,69.71-34.63,24.71-73.51,40.08-115.06,48.18-23.33,4.55-47.43,5.29-70.98,3.27-55.27-4.75-105.31-24.46-149.71-57.86-8.24-6.2-15.77-13.36-23.6-20.1-1.28-1.1-2.56-2.55-1.74-4.19.88-1.75,2.93-.78,4.41-.78,31.29-.06,62.58-.04,93.87-.04,17.84,0,35.72-.71,53.52.16,30.74,1.5,60.53-4.02,90.53-9.45,30.49-5.53,60.86-11.7,91.54-16.37,25.81-3.92,52-4.98,77.54-10.93,5.67-1.32,11.92.29,18.01-1.6Z"/>
      <path class="cls-2" d="m583.36,688.1c-30.74,0-61.49-.15-92.23.15-5.2.05-8.37-1.52-11.4-5.57-5.27-7.04-10.98-13.77-16.81-20.35-2.08-2.35-4.69-5.36-3.64-7.58,1.13-2.39,5.13-2.87,8.33-2.89,6.23-.04,12.54-1.27,18.58-1.29,43.1-.19,83.84-12.4,124.82-23.34,22.77-6.08,45.64-9,69.32-8.49,39.78.85,79.6-.15,119.39.41,17.26.24,32.66-6.39,48.65-10.73,34.93-9.47,69.63-19.78,104.4-29.85,4.06-1.18,5.81-.9,4.27,3.88-7.15,22.18-17.33,42.93-29.73,62.61-2.18,3.46-5.5,4.87-10.21,5.29-15.25,1.35-30.38,3.93-45.58,5.87-14.99,1.91-30.05,3.29-44.99,5.47-20.46,2.98-40.65,7.75-61.03,10.96-28.46,4.48-56.39,12.56-85.02,14.92-25.9,2.13-52.11.5-78.19.52-6.31,0-12.63,0-18.94,0Z"/>
      <path class="cls-2" d="m1500.42,760.78c-32.11,0-64.22-.16-96.32.15-5.87.06-7.08-2.13-6.3-7.11,2.75-17.49,5.43-34.99,8.18-52.48,1.63-10.35,3.2-20.72,5.05-31.03.79-4.41,2.57-7.32,8.42-7.09,14.25.57,28.66-.98,42.78.45,22.42,2.27,44.9-.37,67.15,1.7,19.43,1.81,38.77.59,58.13,1.33,1.64.06,3.49-.28,4.87.37,4.61,2.14,12.56-.01,13.87,4.34,2.03,6.77.98,14.64.27,21.94-.25,2.56-1.2,5.24-1.11,7.95.64,17.73-3.06,35.35-1.57,53.07.5,5.97-2.22,6.52-7.11,6.5-32.11-.17-64.21-.09-96.32-.09Z"/>
      <path d="m1133.86,212.24c-1.96-6.03-4.74-11.94-5.68-18.13-1.27-8.38-6.26-11.16-13.62-11.22-18.67-.15-37.35,0-56.03-.12-2.96-.02-3.23,1.25-3.74,3.74-1.15,5.64-3.52,11.06-4.44,16.73-1.47,9.03-5.38,14.59-15.41,13.34-16.74-2.07-33.59.09-50.87-1.21,6.66-18.61,13.05-36.99,19.82-55.22,10.29-27.72,20.97-55.3,31.14-83.06,1.31-3.59,2.81-4.65,6.3-4.58,20.21.41,40.35-1.75,60.57-1.99,12.73-.16,25.54-1.04,38.33-1.34,3.58-.08,4.93.99,6.21,4.47,15.98,43.5,32.26,86.89,48.34,130.35,1.26,3.39,4.17,8.05-3.12,8.69-19.25-1.69-38.51-3.46-57.8-.46Zm-43.95-72.2c4.93,0,9.88-.28,14.79.07,6.33.45,7.22-1.37,5.19-7.44-6.08-18.22-11.41-36.7-16.97-55.09-.5-1.65.8-4.46-1.75-4.68-2.66-.22-2.71,2.41-3.37,4.59-5.24,17.4-10.87,34.69-16.12,52.09-3.14,10.4-2.93,10.46,8.37,10.46,3.29,0,6.57,0,9.86,0Z"/>
      <path d="m135.18,156.5c8.12-20.02,7.89-39.59,5.28-59.56-1.29-9.84-2.93-18.92-10.74-25.95-3.49-3.14-7.33-5.38-11.71-6.58-9.14-2.5-18.67-2.11-27.97-3.41-5.33-.75-6.26,1.48-6.21,6.35.24,25.48-.32,50.98.36,76.45.23,8.36-3.34,10.84-10.25,11.01-16.08.4-32.14-.1-48.17-1.54-5.31-.48-3.27-4.28-3.28-6.73-.15-25.21-.09-50.42-.09-75.64,0-16.44.23-32.89-.13-49.33-.12-5.48,1.54-6.78,6.87-6.74,29.91.26,59.84-.53,89.73.34,22.23.65,43.72,5.3,59.91,22.53,15.3,16.29,21.21,36.65,24.21,58.15,2.42,17.31.93,34.46-1.54,51.63-.83,5.79-1.98,9.51-9.58,9.23-18.62-.67-37.29-.22-56.68-.22Z"/>
      <path d="m304.81,14.96c24.98,0,49.96.13,74.94-.11,4.84-.05,6.73.81,6.48,6.18-.49,10.39-.33,20.83-.05,31.24.11,4.16-.86,5.62-5.36,5.59-31.29-.2-62.6.52-93.87-.37-15.5-.44-30.95-3.53-46.36-5.83-2.89-.43-5.59-.41-5.84,2.13-.19,1.94,3.03,2.14,5.3,2.38,13.58,1.43,27.12,3.21,40.7,4.66,3.26.35,3.15,2.28,3.15,4.53-.02,5.21.39,10.45-.11,15.62-.59,6.2,1.09,8.34,7.87,8.23,26.62-.45,53.25.05,79.87-.35,6.34-.1,7.94,1.72,7.54,7.76-.54,8.19-.59,16.47,0,24.65.5,6.88-1.01,9.3-8.7,9.13-26.34-.59-52.7,0-79.05-.39-6.29-.09-7.82,1.65-7.63,7.72.21,6.66,3.28,15.63-1.42,19.45-4,3.25-12.59.93-19.15.96-11.8.05-23.61-.12-35.41.09-3.78.07-5.19-.76-5.17-4.9.15-44.41.21-88.81-.05-133.22-.03-5.67,2.81-5.19,6.54-5.18,25.25.07,50.51.04,75.76.04Z"/>
      <path d="m659.19,212.19c-11.49-7.19-23.58-13.03-32.52-24.29-9.86-12.42-15.89-26.15-19.92-40.97-5.06-18.61-1.77-37.65-1.79-56.51,0-2.6,1.28-3.26,3.53-3.26,18.66.02,37.33.04,55.99-.04,2.99-.01,4,1.05,3.11,3.89-3.03,9.64-4.04,19.62-3.13,29.56,1.41,15.43,3.15,30.76,15.39,42.62,11.76,11.4,25.48,11.65,39.54,7.52,12.87-3.78,21.22-13.02,24.03-26.41,3.9-18.59,5.62-37.26.41-55.93-.94-3.36.33-4.35,3.55-4.31,17.45.22,34.8-2.74,52.3-1.69,3.77.23,5.95.82,6.49,5.29,2.78,23.22,3.01,46.3-3.47,68.98-7.38,25.87-24.09,43.69-48.61,54.36-3.37,1.47-7.03,2.27-10.56,3.38-19.95.4-39.35-5.39-59.34-5.14-8.53.11-16.37,4.65-25,2.95Z"/>
      <path d="m1544.87,214.33c-2.27,2.26-5.16,1.38-7.79,1.38-50.6.05-101.2.06-151.79-.02-2.56,0-5.55,1.16-7.56-1.65.08-38.66.32-77.32.07-115.98-.04-6.16,1.41-8.38,7.59-7.44,14.83,2.24,29.69,4.32,44.56,6.3,10.1,1.35,20.24,2.42,30.36,3.62,16.5,1.96,33,3.82,49.45,6.22,6.06.88,12.27,2.36,18.52,1.95,3.52-.23,4.52.86,4.71,4.5.9,16.96,1.05,16.95-16.11,16.95-23.62,0-47.23.14-70.85-.11-5.16-.06-7.29.96-6.95,6.65.52,8.74.48,17.56.01,26.31-.29,5.46,1.45,6.85,6.82,6.78,23.89-.29,47.78-.19,71.67-.07,4.03.02,8.09.13,12.16.5,4.52.41,11-2.63,13.54.31,3.32,3.85.92,10.46,1.1,15.87.3,9.3.35,18.61.5,27.92Z"/>
      <path d="m822.67,81.47c17.88-4.25,35.78-.62,53.16-3.99,4.35-.84,5.87,1.24,7.04,5.13,6.73,22.34,13.7,44.61,20.66,66.89.59,1.9,1.73,3.63,3.11,6.46,7.92-25.46,16.08-49.43,22.59-73.85,2.08-7.81,7.09-7.53,11.74-7.69,16.18-.54,32.4-.21,49.21-.21-4.94,14.14-9.61,27.96-14.61,41.67-10.77,29.56-22.02,58.95-32.38,88.66-2.94,8.44-6.37,12.2-16.09,11.51-15.58-1.11-31.32-.89-46.93-.04-7.26.4-9.58-3.32-11.4-8.49-13.97-39.78-28.7-79.27-43.84-118.62-.86-2.22-1.4-4.56-2.27-7.43Z"/>
      <path d="m1753.2,14.97c-13.29,21.15-25.61,40.78-37.95,60.4-6.39,10.16-12.56,20.47-19.34,30.36-3.4,4.96-3.4,8.75.17,13.63,6.27,8.59,11.86,17.67,18.35,27.46-8.69-.65-15.8-3.65-23.05-5.78-24.88-7.32-49.73-14.79-74.43-22.69-2.02-.65-9.8.67-5.63-7.04.88-1.62-2.92-5.93-4.81-8.85-17.25-26.68-34.57-53.31-51.81-79.99-1.28-1.98-2.08-4.26-3.62-7.49,22.14,0,43.61,0,65.08,0,3.63,0,4.02,3.34,5.27,5.52,9.4,16.44,18.93,32.82,27.83,49.53,3.32,6.23,4.78,3.97,7.06-.23,9.06-16.65,18.21-33.26,27.23-49.93,1.46-2.7,2.55-5.02,6.44-4.98,20.53.18,41.05.09,63.19.09Z"/>
      <path d="m1614.7,214c-.48.27-.95.74-1.44.77-22.56,1.32-45.12,2.23-67.66-.43,12.06-18.84,24.1-37.69,36.21-56.51,7.22-11.23,14.83-22.22,21.65-33.67,2.4-4.02,4.49-4.26,8.43-3.03,34.36,10.77,68.77,21.42,103.22,31.91,2.1.64,4.08.61,5.44,2.75,12.13,19.1,24.35,38.14,36.5,57.23.51.8.63,1.85.93,2.78-19.68-.01-39.35-.09-59.02.01-3.88.02-7.57-.42-11.15-1.88-10.05-20.53-23.09-39.31-34.58-59-1.42-2.43-2.08-2.33-3.62.2-11.84,19.5-24.42,38.56-34.9,58.86Z"/>
      <path d="m541.35,133.65c16.46,4.94,32.65,9.7,48.75,14.73,3,.94,5.79,1.5,4.03,7.1-4.42,14.05-10.63,26.67-20.09,38.05-5.09,6.12-11.12,6.73-17.53,5.63-26.89-4.6-53.68-9.82-80.56-14.51-17.64-3.07-35.34-5.79-53.08-8.25-3.77-.52-6.05-1.96-7.53-5.1-6.44-13.67-10.33-27.81-11.8-43.08-1.41-14.71.65-28.87,2.05-43.23.47-4.79.53-7.44,8.04-6.47,14.89,1.94,29.71,4.87,44.77,5.58,8.34.39,8.88,2.41,7.9,10.89-2.3,20.05-4.32,40.3,5.01,59.44,5.67,11.62,15.04,18.15,27.99,18.45,14.76.34,27.51-3.7,34.79-18.19,3.39-6.74,5.96-13.7,7.22-21.04Z"/>
      <path d="m1460.05,14.96c24.71,0,49.43.17,74.14-.13,5.51-.07,7.74.89,7.35,6.99-.58,9.29-.52,18.66-.02,27.95.33,6.16-1.12,8.26-7.85,8.17-29.1-.42-58.21-.03-87.31-.32-5.67-.06-7.8,1.25-7.27,7.16.54,5.98.51,12.09,0,18.08-.45,5.31,1.58,6.32,6.48,6.28,26.91-.23,53.82.15,80.72-.29,6.53-.11,6.75,2.57,6.73,7.61-.02,5.03-.13,8.33-6.77,7.42-17.33-2.38-34.72-4.31-52.09-6.4-14.41-1.73-28.82-3.36-43.22-5.17-16.78-2.11-33.52-4.48-50.32-6.49-3.73-.45-2.63-2.86-2.64-4.74-.07-20.29.18-40.59-.19-60.87-.1-5.57,2.61-5.3,6.46-5.28,25.26.09,50.52.05,75.79.05Z"/>
      <path d="m763.5,79.2c-4.95.56-11.16-1.02-17.3,1.46-4.55,1.84-6.15-2.66-7.58-5.57-8.52-17.26-36.57-19.48-51.78-12.53-7.16,3.27-11.91,9.44-15.21,16.21-1.53,3.13-2.86,3.94-5.89,3.93-17.58-.08-35.16-.24-52.72.09-5.2.1-5.62-2.36-4.43-5.91,8.95-26.77,25.09-47.11,52.14-57.56,19.21-7.42,38.78-8.4,59.3-6.42,18.8,1.81,36.17,6.09,51.38,17.06,14.55,10.49,24.82,24.54,30.89,41.54,1.18,3.3.26,3.96-3.05,4.54-11.45,2-22.93,3.2-35.74,3.16Z"/>
      <path d="m408.64,73.86c9.79-29.12,27.82-49.14,57.23-57.42,16.97-4.78,34.15-5.49,51.95-3.6,16.67,1.76,31.77,5.8,45.5,15.29,15.16,10.48,22.53,26.2,29.27,42.47,1.49,3.6-.2,3.22-2.61,3.72-15.69,3.3-30.94,8.93-47.37,8.23-3.06-.13-5.06-.61-6.11-3.63-8.79-25.29-51.54-27.9-64.29-2.81-2.01,3.96-4.4,5.3-8.19,4.63-14.28-2.54-28.87-2.77-43.06-6.03-3.67-.84-7.59-.57-12.31-.86Z"/>
      <path class="cls-2" d="m659.19,212.19c8.63,1.71,16.48-2.84,25-2.95,19.99-.25,39.39,5.53,59.34,5.14,8.89,5.7,19.5,6.35,29.25,9.13,30.19,8.59,57.3,22.9,82.67,40.78,9.26,6.53,17.67,14.28,26.36,21.61,1.95,1.65,4.46,3.07,5.58,7.88-13.09-3.58-25.48-1.25-37.67-2.96-2.92-.41-5.88-1.15-8.8-.93-12.85.94-25.6-1.17-38.27-2.22-8.62-.71-17.19-5.53-25.16-9.69-13.38-6.99-27.24-13.14-41.01-18.99-25.49-10.83-50.62-22.49-76.1-33.33-6.98-2.97-13.79-6.32-22.11-10.15,8.17-2.98,14.54-3.11,20.91-3.31Z"/>
      <path d="m197.78,161.69c-9.5,24.99-25.44,42.28-52.27,49.45-15.21,4.07-30.31,4.61-45.7,4.6-23.6,0-47.2-.19-70.79.14-5.52.08-6.88-1.53-6.76-6.84.35-15.34.13-30.68.13-46.03,0-2.75-.46-5.74,3.9-5.45,17.38,1.16,34.89-1.08,52.24,2.06,3.1.56,4.6,1.2,3.99,4.29-1.15,5.86,2.34,5.83,6.61,5.82,11.87-.03,24.14.9,34.83-4.83,6.15-3.29,11.81-6.34,18.71-5.06,18.13,3.38,36.45-.58,55.1,1.84Z"/>
      <path d="m255.77,216c-11.12-1.75-22.24-3.5-33.35-5.25,0-16.15,0-32.29,0-47.67,17.53,0,34.39-.22,51.23.17,3.76.09,10.58-3.83,10.39,5.46-.03,1.66,3.92.91,6.03.92,18.67.06,37.35.24,56.02-.03,13.02-.19,25.56,2.49,38.27,4.6,5.02.83,4.78,2.68,4.77,6.03-.05,9.32-.39,18.67.12,27.97.32,5.91-1,7.79-7.43,7.73-39.54-.36-79.09-.18-118.64-.17-2.47,0-4.94.16-7.41.24Z"/>
      <path d="m1291.58,166.38c-29.63,13.81-57.07,26.6-84.84,39.55V70.08c15.79,1.88,31.35,3.95,46.97,5.43,4.07.39,7.65,2.34,11.89,2.23,3.9-.1,2.09,3.8,2.11,5.8.15,24.93.29,49.87-.04,74.79-.08,6.14,1.07,9.07,7.9,8.16,4.46-.6,9.07-.11,16.01-.11Z"/>
      <path d="m1210.06,216.01c-1.41-.34-3.06-.23-3.74-1.96.3-2.27,1.2-3.83,3.54-4.91,29.09-13.35,58.15-26.75,87.12-40.35,3.56-1.67,7-2.47,10.85-2.45,16.19.08,32.38.23,48.55-.08,5.13-.1,7.06.93,6.88,6.57-.44,14.23-.13,28.49-.12,42.73-1.68.14-3.35.28-5.03.43-49.35,0-98.7,0-148.06.01Z"/>
      <path class="cls-2" d="m1133.86,212.24c19.29-3,38.55-1.23,57.8.46-14.79,7.05-29.54,14.15-44.36,21.13-28.07,13.2-55.85,27.09-84.37,39.24-21.94,9.35-42.48,21.7-66.37,30.4,9.71-18.15,22.02-32.51,36.31-44.82,23.45-20.19,50-35.14,80.38-42.49,6.79-1.64,13.73-2.63,20.6-3.92Z"/>
      <path d="m1142.58,64.19c-34.96.97-69.14,4.07-104.19,3.32,6.18-16.4,12.35-32.31,18.08-48.38,1.16-3.26,2.66-4.21,5.78-4.2,19.22.07,38.45.23,57.66-.09,5.39-.09,6.24,3.61,7.48,6.95,5.08,13.72,9.89,27.53,15.19,42.4Z"/>
      <path d="m798.09,14.96c20.03,0,39.21.17,58.38-.13,4.4-.07,6.15,1.72,7.27,5.42,5.21,17.26,10.5,34.49,15.85,52.02-17.69,2.08-35.38,3.45-53.19,3.75-4.76.08-6.96-1.69-8.38-5.64-6.55-18.25-13.12-36.5-19.92-55.41Z"/>
      <path d="m932.85,70.4c5.01-16.8,10.01-33.49,14.96-50.19,1-3.37,2.41-5.41,6.65-5.35,18.94.25,37.89.11,57.56.11-6.31,17.2-12.42,33.99-18.71,50.7-.65,1.72-1.25,3.91-4.41,3.69-18.54-1.28-36.97,3.42-56.06,1.04Z"/>
      <path d="m1237.08,14.96c8.22,0,16.46.19,24.67-.08,4.25-.14,6.3.51,6.18,5.59-.35,15.6-.3,31.21-.02,46.81.08,4.44-1.38,5.83-5.56,5.3-17.84-2.25-35.69-4.46-53.54-6.6-3.1-.37-2.22-2.61-2.23-4.28-.07-13.96.12-27.93-.13-41.89-.07-4.08,1.29-5.06,5.13-4.94,8.49.26,17,.08,25.49.08Z"/>
      <path d="m562.03,203.96c-39.87,26.26-119.84,19.51-139.78-23.31,46.45,7.75,92.16,15.37,139.78,23.31Z"/>
    </g>
  </g>
</svg>